# xmcd CD database file
#
# Track frame offsets:
#	150
#	21310
#	39972
#	62066
#	80971
#	101490
#	120467
#	143288
#	163537
#	185482
#	205605
#	221007
#	241675
#	264014
#	283767
#	330602
#
# Disc length: 4616 seconds
#
# Revision: 0
# Processed by: cddbd v1.5.2PL0 Copyright (c) Steve Scherf et al.
# Submitted via: CDex 1.51
#
DISCID=d6120610
DTITLE=Eddy Herrera and Elvis Crespo - Eddy Herrera vs Elvis Crespo
DYEAR=2004
DGENRE=Merengue
TTITLE0=Demasiado Romántica (Eddy Herrera)
TTITLE1=Bandida (Elvis Crespo)
TTITLE2=Tú eres ajena (Eddy Herrera)
TTITLE3=La cerveza (Elvis Crespo)
TTITLE4=Demasiado niña (Eddy Herrera)
TTITLE5=Linda eh (Elvis Crespo)
TTITLE6=Pégame tu vicio (Eddy Herrera)
TTITLE7=Suavemente (Elvis Crespo)
TTITLE8=Carolina (Eddy Herrera)
TTITLE9=Luna llena (Elvis Crespo)
TTITLE10=Me enamoré (Eddy Herrera)
TTITLE11=Tu sonrisa (Elvis Crespo)
TTITLE12=Tú vas a volar (Eddy Herrera)
TTITLE13=Píntame (Elvis Crespo)
TTITLE14=Eddy Herrera Megamix (Eddy Herrera)
TTITLE15=Nuestra canción (Elvis Crespo)
EXTD=YEAR: 2004
EXTT0=
EXTT1=
EXTT2=
EXTT3=
EXTT4=
EXTT5=
EXTT6=
EXTT7=
EXTT8=
EXTT9=
EXTT10=
EXTT11=
EXTT12=
EXTT13=
EXTT14=
EXTT15=
PLAYORDER=
